<svg width="6" height="10" viewBox="0 0 6 10" fill="none" xmlns="http://www.w3.org/2000/svg">
<path fill-rule="evenodd" clip-rule="evenodd" d="M2.66505 0.141723C2.85004 -0.0472408 3.14996 -0.0472408 3.33495 0.141723L5.86126 2.72237C6.04625 2.91133 6.04625 3.2177 5.86126 3.40666C5.67628 3.59563 5.37636 3.59563 5.19137 3.40666L3 1.16817L0.808629 3.40666C0.623644 3.59563 0.323724 3.59563 0.138739 3.40666C-0.0462463 3.2177 -0.0462463 2.91133 0.138739 2.72237L2.66505 0.141723ZM0.138739 6.59334C0.323724 6.40437 0.623644 6.40437 0.808629 6.59334L3 8.83183L5.19137 6.59334C5.37636 6.40437 5.67628 6.40437 5.86126 6.59334C6.04625 6.7823 6.04625 7.08867 5.86126 7.27763L3.33495 9.85828C3.14996 10.0472 2.85004 10.0472 2.66505 9.85828L0.138739 7.27763C-0.0462463 7.08867 -0.0462463 6.7823 0.138739 6.59334Z" fill="#1A141F"/>
</svg>
